PathFileType	4	(X/Y/Z)	S:\OneDrive - The University of Tokyo\ìåëÂéˆã∆\ÉoÉCÉÅÉJ\ë™íË\hirabayashi_2\Trimmed\Trimmed_Trimmed_ShSs3-Bar.trc
DataRate	CameraRate	NumFrames	NumMarkers	Units	OrigDataRate	OrigDataStartFrame	OrigNumFrames
200.00	200.00	      9	12	mm	200.00	860	      1718
Frame#	Time	BarR0			BarR50			BarR100			BarR130			BarR180			BarR230			BarL0			BarL50			BarL100			BarL130			BarL180			BarL230			
		X1	Y1	Z1	X2	Y2	Z2	X3	Y3	Z3	X4	Y4	Z4	X5	Y5	Z5	X6	Y6	Z6	X7	Y7	Z7	X8	Y8	Z8	X9	Y9	Z9	X10	Y10	Z10	X11	Y11	Z11	X12	Y12	Z12	

860	4.295	-574.57037	2753.82886	1663.98181	-598.68164	2304.50977	1653.19128	-629.84546	1850.75049	1646.72864	-654.28296	1348.64771	1646.51135	-683.96088	902.45337	1653.46863	-710.85004	454.88974	1663.99463	-1115.88037	2806.95752	1664.31604	-1145.46570	2355.34814	1658.81848	-1178.02466	1905.78992	1653.76978	-1206.04248	1404.59851	1653.05688	-1231.73987	952.86475	1658.67664	-1246.32336	506.78180	1667.26123	
861	4.300	-574.56396	2753.84058	1663.99707	-598.67255	2304.48730	1653.15051	-629.81372	1850.78687	1646.68335	-654.22083	1348.66492	1646.47095	-683.93390	902.45923	1653.43420	-710.84540	454.86676	1663.98535	-1115.93457	2806.96021	1664.29175	-1145.46741	2355.35522	1658.81421	-1178.03186	1905.79370	1653.76782	-1206.04138	1404.62292	1653.05994	-1231.75403	952.86853	1658.68213	-1246.31580	506.80688	1667.25989	
862	4.305	-574.58636	2753.85303	1664.00415	-598.67615	2304.51001	1653.12683	-629.73560	1850.79785	1646.61426	-654.17249	1348.68164	1646.40613	-683.87701	902.49969	1653.37524	-710.83313	454.91959	1663.98376	-1115.91479	2806.94580	1664.31738	-1145.50195	2355.35010	1658.80530	-1178.03430	1905.79114	1653.76514	-1206.06116	1404.61292	1653.02856	-1231.76221	952.87256	1658.66577	-1246.30847	506.80847	1667.24658	
863	4.310	-574.59332	2753.87305	1664.00842	-598.63623	2304.47974	1653.09424	-629.70343	1850.79956	1646.55286	-654.15015	1348.66467	1646.33643	-683.84326	902.47504	1653.34961	-710.81519	454.91980	1663.98474	-1115.95569	2806.98682	1664.30872	-1145.48950	2355.37378	1658.79077	-1178.04993	1905.79602	1653.73303	-1206.06079	1404.61279	1653.00745	-1231.77417	952.87524	1658.64636	-1246.28210	506.81085	1667.26831	
864	4.315	-574.62268	2753.89526	1663.99463	-598.65192	2304.49048	1653.03394	-629.75562	1850.83130	1646.45947	-654.14648	1348.67590	1646.28955	-683.85760	902.49200	1653.30200	-710.82849	454.90033	1663.96973	-1115.97656	2806.98022	1664.30432	-1145.47754	2355.35938	1658.78882	-1178.04224	1905.79419	1653.71338	-1206.05786	1404.62158	1652.99841	-1231.73669	952.88733	1658.64111	-1246.27588	506.83661	1667.26147	
865	4.320	-574.60437	2753.87524	1664.00000	-598.67200	2304.49365	1653.00732	-629.70886	1850.83154	1646.40479	-654.13696	1348.69910	1646.22815	-683.84290	902.48761	1653.27539	-710.79944	454.96545	1663.97974	-1115.93726	2806.99097	1664.30310	-1145.49170	2355.37964	1658.77966	-1178.04407	1905.81934	1653.70264	-1206.05457	1404.64819	1652.95837	-1231.72888	952.90216	1658.60901	-1246.25256	506.83395	1667.25305	
866	4.325	-574.60883	2753.87329	1663.99622	-598.67950	2304.48389	1652.97766	-629.69360	1850.87488	1646.30896	-654.12115	1348.68494	1646.17285	-683.81885	902.50891	1653.24121	-710.79077	454.94174	1663.97961	-1115.95300	2807.00391	1664.30249	-1145.47339	2355.39111	1658.77478	-1178.04248	1905.87732	1653.67102	-1206.05957	1404.63916	1652.94543	-1231.73853	952.90155	1658.61121	-1246.25964	506.83353	1667.27344	
867	4.330	-574.62311	2753.86499	1664.01965	-598.66962	2304.45117	1652.93286	-629.69379	1850.82349	1646.23999	-654.13245	1348.67383	1646.12683	-683.82715	902.49579	1653.22607	-710.79218	454.95020	1663.98376	-1115.92175	2807.01782	1664.30310	-1145.47498	2355.37158	1658.74792	-1178.01892	1905.86743	1653.63135	-1206.04272	1404.66150	1652.91797	-1231.74353	952.90399	1658.59998	-1246.26953	506.86111	1667.25049	
868	4.335	-574.61157	2753.84424	1663.99744	-598.68506	2304.46680	1652.90491	-629.67279	1850.81775	1646.19312	-654.10614	1348.65710	1646.07800	-683.78754	902.44067	1653.18079	-710.77826	454.92700	1663.97424	-1115.94324	2807.03564	1664.30811	-1145.46289	2355.37036	1658.72437	-1178.02014	1905.86951	1653.60339	-1206.04309	1404.64294	1652.88391	-1231.75671	952.91071	1658.55518	-1246.27917	506.84509	1667.24695	
